<?xml version="1.0" encoding="iso-8859-1"?>
<!-- Generator: Adobe Illustrator 19.0.0, SVG Export Plug-In . SVG Version: 6.00 Build 0)  -->
<svg version="1.1" id="Layer_1" xmlns="http://www.w3.org/2000/svg" xmlns:xlink="http://www.w3.org/1999/xlink" x="0px" y="0px"
	 viewBox="0 0 512 512" style="enable-background:new 0 0 512 512;" xml:space="preserve">
<g>
	<g>
		<path d="M500.633,341.391c0-0.002,0-0.004,0-0.006c0-0.133-0.014-0.262-0.02-0.394c-0.2-5.008-2.229-9.691-5.809-13.256
			l-25.344-25.22c-3.067-3.051-8.029-3.042-11.083,0.027c-3.053,3.068-3.041,8.03,0.027,11.082l20.019,19.921h-46.781
			c-0.406-0.544-0.842-1.072-1.332-1.561l-37.64-37.453c-0.485-0.482-1.008-0.91-1.55-1.31v-46.543l48.481,48.239
			c3.068,3.053,8.03,3.041,11.082-0.027c3.053-3.069,3.041-8.03-0.027-11.082l-53.712-53.443c-3.594-3.576-8.323-5.595-13.373-5.769
			c-0.096-0.003-0.191-0.015-0.288-0.015c-0.002,0-0.003,0-0.005,0c-0.136-0.002-0.27-0.02-0.405-0.02
			c-5.314,0-10.312,2.061-14.074,5.803l-97.861,97.371c-3.77,3.753-5.846,8.746-5.846,14.057s2.076,10.303,5.848,14.058
			l97.86,97.373c3.589,3.568,8.307,5.586,13.346,5.767c0.002,0,0.003,0,0.005,0c0.24,0.008,0.479,0.034,0.721,0.034
			c5.312,0,10.31-2.06,14.073-5.803l97.861-97.372c3.77-3.753,5.846-8.746,5.846-14.057
			C500.653,341.659,500.636,341.526,500.633,341.391z M375.447,245.86v46.792c-0.847,0.538-1.647,1.161-2.375,1.885l-37.639,37.451
			c-0.82,0.817-1.511,1.725-2.093,2.692h-47.156L375.447,245.86z M374.31,436.595l-8.579-8.536l-78.095-77.706h46.7
			c0.342,0.432,0.702,0.853,1.098,1.247l37.639,37.452c0.392,0.39,0.808,0.744,1.236,1.08V436.595z M382.872,376.691L347.8,341.793
			l35.072-34.898l35.072,34.898L382.872,376.691z M389.984,438.039l0.001-46.916c0.964-0.577,1.872-1.261,2.69-2.073l37.64-37.452
			c0.731-0.728,1.36-1.528,1.903-2.376h47.031L389.984,438.039z"/>
	</g>
</g>
<g>
	<g>
		<path d="M425.413,70.209l-39.91-61.108C381.774,3.402,375.5,0,368.72,0H224.879c-6.786,0-13.059,3.404-16.782,9.106l-39.911,61.1
			c-4.86,7.439-4.346,17.055,1.279,23.927l111.827,136.66c3.828,4.681,9.48,7.367,15.507,7.367c6.026,0,11.678-2.684,15.505-7.364
			l63.383-77.457c2.742-3.35,2.248-8.287-1.102-11.028c-3.348-2.741-8.287-2.247-11.028,1.102l-50.07,61.189L351.072,89.96h56.227
			l-27.494,33.601c-2.742,3.35-2.248,8.287,1.102,11.028c3.349,2.742,8.287,2.249,11.028-1.102l32.201-39.351
			C429.76,87.263,430.274,77.646,425.413,70.209z M282.249,15.673l-24.672,37.771l-24.672-37.771H282.249z M218.356,22.061
			l29.861,45.713l-4.253,6.511h-59.721L218.356,22.061z M186.301,89.959h56.516l37.39,114.76L186.301,89.959z M296.823,205.123
			L259.301,89.959h27c4.328,0,7.837-3.509,7.837-7.837c0-4.328-3.509-7.837-7.837-7.837h-23.617l34.114-52.226l34.115,52.226h-16.4
			c-4.328,0-7.837,3.509-7.837,7.837c0,4.328,3.509,7.837,7.837,7.837h20.063L296.823,205.123z M311.349,15.673h49.345
			l-24.673,37.771L311.349,15.673z M349.636,74.286l-4.254-6.512l29.862-45.716l34.113,52.228H349.636z"/>
	</g>
</g>
<g>
	<g>
		<path d="M220.278,305.633c4.328,0,7.837-3.509,7.837-7.837V233.49c0-5.767-2.46-11.316-6.752-15.226l-87.531-79.654
			c-3.856-3.512-8.863-5.445-14.101-5.445c-5.238,0-10.246,1.934-14.102,5.444l-87.533,79.657
			c-4.288,3.904-6.748,9.453-6.748,15.225v176.902c0,5.714,2.417,11.223,6.628,15.114l87.533,80.938
			c3.875,3.582,8.927,5.555,14.222,5.555c5.298,0,10.349-1.974,14.22-5.556l87.531-80.936c4.215-3.894,6.633-9.404,6.633-15.117
			v-83.339c0-4.328-3.509-7.837-7.837-7.837s-7.837,3.509-7.837,7.837v72.6l-36.383-11.655v-131.95l36.383-11.782v53.53
			C212.441,302.124,215.95,305.633,220.278,305.633z M111.893,154.097v48.658l-42.567,38.736L29.892,228.72L111.893,154.097z
			 M27.02,244.266l36.38,11.782v131.95l-36.38,11.654V244.266z M111.893,491.003L29.9,415.188l39.374-12.613l42.619,39.407V491.003z
			 M209.557,415.187L127.567,491v-49.018l42.616-39.407L209.557,415.187z M170.132,241.492l-11.261-10.248
			c-3.199-2.912-8.156-2.679-11.071,0.521c-2.913,3.201-2.679,8.158,0.521,11.071l12.062,10.977V390.29l-40.653,37.592
			L79.074,390.29V253.813l40.656-36.998l8.746,7.958c3.201,2.912,8.157,2.679,11.071-0.521c2.913-3.202,2.679-8.158-0.521-11.071
			l-11.457-10.427v-48.655l81.999,74.62L170.132,241.492z"/>
	</g>
</g>
<g>
</g>
<g>
</g>
<g>
</g>
<g>
</g>
<g>
</g>
<g>
</g>
<g>
</g>
<g>
</g>
<g>
</g>
<g>
</g>
<g>
</g>
<g>
</g>
<g>
</g>
<g>
</g>
<g>
</g>
</svg>
