<svg xmlns="http://www.w3.org/2000/svg" xmlns:xlink="http://www.w3.org/1999/xlink" version="1.1" width="1000" height="1000" viewBox="0 0 1000 1000" xml:space="preserve">
<desc>Created with Fabric.js 3.5.0</desc>
<defs>
</defs>
<rect x="0" y="0" width="100%" height="100%" fill="rgba(255,255,255,0)"/>
<g transform="matrix(36.3636 0 0 36.3636 499.9995 499.9996)" id="613068">
<path style="stroke: none; stroke-width: 1; stroke-dasharray: none; stroke-linecap: butt; stroke-dashoffset: 0; stroke-linejoin: miter; stroke-miterlimit: 4; is-custom-font: none; font-file-url: none; fill: rgb(255,255,255); fill-rule: nonzero; opacity: 1;" vector-effect="non-scaling-stroke" transform=" translate(-12.5, -12)" d="M 23.75 1 H 1.25 A 1.25 1.25 0 0 0 0 2.25 v 15.5 A 1.25 1.25 0 0 0 1.25 19 H 7 v 3 H 5 v 1 H 20 V 22 H 18 V 19 h 5.75 A 1.25 1.25 0 0 0 25 17.75 V 2.25 A 1.25 1.25 0 0 0 23.75 1 Z M 17 22 H 8 V 19 h 9 Z m 7 -4.25 a 0.25 0.25 0 0 1 -0.25 0.25 H 1.25 A 0.25 0.25 0 0 1 1 17.75 V 15 H 24 Z M 24 14 H 1 V 2.25 A 0.25 0.25 0 0 1 1.25 2 h 22.5 a 0.25 0.25 0 0 1 0.25 0.25 Z" stroke-linecap="round"/>
</g>
<g transform="matrix(20.0673 0 0 20.0673 516.394 345.8183)" id="79711">
<g style="" vector-effect="non-scaling-stroke">
		<g transform="matrix(1 0 0 1 8 6)">
<path style="stroke: rgb(255,255,255); stroke-width: 1.5; stroke-dasharray: none; stroke-linecap: round; stroke-dashoffset: 0; stroke-linejoin: round; stroke-miterlimit: 4; is-custom-font: none; font-file-url: none; fill: none; fill-rule: nonzero; opacity: 1;" transform=" translate(-20, -18)" d="M 18 18 H 20 M 22 18 H 20 M 20 18 V 16 M 20 18 V 20" stroke-linecap="round"/>
</g>
		<g transform="matrix(1 0 0 1 -1 -1)">
<path style="stroke: rgb(255,255,255); stroke-width: 1.5; stroke-dasharray: none; stroke-linecap: round; stroke-dashoffset: 0; stroke-linejoin: round; stroke-miterlimit: 4; is-custom-font: none; font-file-url: none; fill: none; fill-rule: nonzero; opacity: 1;" transform=" translate(-11, -11)" d="M 2 11 L 20 11" stroke-linecap="round"/>
</g>
		<g transform="matrix(1 0 0 1 -4 5)">
<path style="stroke: rgb(255,255,255); stroke-width: 1.5; stroke-dasharray: none; stroke-linecap: round; stroke-dashoffset: 0; stroke-linejoin: round; stroke-miterlimit: 4; is-custom-font: none; font-file-url: none; fill: none; fill-rule: nonzero; opacity: 1;" transform=" translate(-8, -17)" d="M 2 17 L 14 17" stroke-linecap="round"/>
</g>
		<g transform="matrix(1 0 0 1 -1 -7)">
<path style="stroke: rgb(255,255,255); stroke-width: 1.5; stroke-dasharray: none; stroke-linecap: round; stroke-dashoffset: 0; stroke-linejoin: round; stroke-miterlimit: 4; is-custom-font: none; font-file-url: none; fill: none; fill-rule: nonzero; opacity: 1;" transform=" translate(-11, -5)" d="M 2 5 L 20 5" stroke-linecap="round"/>
</g>
</g>
</g>
</svg>