<svg xmlns="http://www.w3.org/2000/svg" xmlns:xlink="http://www.w3.org/1999/xlink" version="1.1" width="1000" height="1000" viewBox="0 0 1000 1000" xml:space="preserve">
<desc>Created with Fabric.js 3.5.0</desc>
<defs>
</defs>
<rect x="0" y="0" width="100%" height="100%" fill="rgba(255,255,255,0)"/>
<g transform="matrix(36.3636 0 0 36.3636 499.9995 499.9996)" id="613068">
<path style="stroke: none; stroke-width: 1; stroke-dasharray: none; stroke-linecap: butt; stroke-dashoffset: 0; stroke-linejoin: miter; stroke-miterlimit: 4; is-custom-font: none; font-file-url: none; fill: rgb(255,255,255); fill-rule: nonzero; opacity: 1;" vector-effect="non-scaling-stroke" transform=" translate(-12.5, -12)" d="M 23.75 1 H 1.25 A 1.25 1.25 0 0 0 0 2.25 v 15.5 A 1.25 1.25 0 0 0 1.25 19 H 7 v 3 H 5 v 1 H 20 V 22 H 18 V 19 h 5.75 A 1.25 1.25 0 0 0 25 17.75 V 2.25 A 1.25 1.25 0 0 0 23.75 1 Z M 17 22 H 8 V 19 h 9 Z m 7 -4.25 a 0.25 0.25 0 0 1 -0.25 0.25 H 1.25 A 0.25 0.25 0 0 1 1 17.75 V 15 H 24 Z M 24 14 H 1 V 2.25 A 0.25 0.25 0 0 1 1.25 2 h 22.5 a 0.25 0.25 0 0 1 0.25 0.25 Z" stroke-linecap="round"/>
</g>
<g transform="matrix(9.9455 -7.1507 7.1507 9.9455 682.706 371.405)" id="214331">
<g style="" vector-effect="non-scaling-stroke">
		<g transform="matrix(1 0 0 1 -0.2281 3.7143)">
<path style="stroke: rgb(255,255,255); stroke-width: 1.5; stroke-dasharray: none; stroke-linecap: round; stroke-dashoffset: 0; stroke-linejoin: round; stroke-miterlimit: 4; is-custom-font: none; font-file-url: none; fill: none; fill-rule: nonzero; opacity: 1;" transform=" translate(-11.772, -15.7143)" d="M 8 14.5714 L 6.17716 12.8354 C 5.53522 12.224 4.51329 12.2705 3.92953 12.9377 V 12.9377 C 3.40196 13.5406 3.41749 14.4453 3.96544 15.0298 L 9.90739 21.3679 C 10.2855 21.7712 10.8127 22 11.3655 22 C 12.4505 22 14.2343 22 16 22 C 18.4 22 20 20 20 18 C 20 18 20 18 20 18 C 20 18 20 11.1429 20 9.42859" stroke-linecap="round"/>
</g>
		<g transform="matrix(1 0 0 1 6.5 -3.1429)">
<path style="stroke: rgb(255,255,255); stroke-width: 1.5; stroke-dasharray: none; stroke-linecap: round; stroke-dashoffset: 0; stroke-linejoin: round; stroke-miterlimit: 4; is-custom-font: none; font-file-url: none; fill: none; fill-rule: nonzero; opacity: 1;" transform=" translate(-18.5, -8.8571)" d="M 17 9.99995 C 17 9.99995 17 9.87483 17 9.42852 C 17 7.1428 20 7.1428 20 9.42852" stroke-linecap="round"/>
</g>
		<g transform="matrix(1 0 0 1 3.5 -3.7143)">
<path style="stroke: rgb(255,255,255); stroke-width: 1.5; stroke-dasharray: none; stroke-linecap: round; stroke-dashoffset: 0; stroke-linejoin: round; stroke-miterlimit: 4; is-custom-font: none; font-file-url: none; fill: none; fill-rule: nonzero; opacity: 1;" transform=" translate(-15.5, -8.2857)" d="M 14 9.99998 C 14 9.99998 14 9.17832 14 8.2857 C 14 5.99998 17 5.99998 17 8.2857 C 17 8.50885 17 9.2054 17 9.42855 C 17 9.87487 17 9.99998 17 9.99998" stroke-linecap="round"/>
</g>
		<g transform="matrix(1 0 0 1 0.5 -4.107)">
<path style="stroke: rgb(255,255,255); stroke-width: 1.5; stroke-dasharray: none; stroke-linecap: round; stroke-dashoffset: 0; stroke-linejoin: round; stroke-miterlimit: 4; is-custom-font: none; font-file-url: none; fill: none; fill-rule: nonzero; opacity: 1;" transform=" translate(-12.5, -7.8929)" d="M 11 10.0001 C 11 10.0001 11 8.61584 11 7.50005 C 11 5.21434 14 5.21434 14 7.50005 C 14 7.50005 14 7.50005 14 7.50005 C 14 7.50005 14 8.06261 14 8.28577 C 14 9.17839 14 10.0001 14 10.0001" stroke-linecap="round"/>
</g>
		<g transform="matrix(1 0 0 1 -2.5 -3.7143)">
<path style="stroke: rgb(255,255,255); stroke-width: 1.5; stroke-dasharray: none; stroke-linecap: round; stroke-dashoffset: 0; stroke-linejoin: round; stroke-miterlimit: 4; is-custom-font: none; font-file-url: none; fill: none; fill-rule: nonzero; opacity: 1;" transform=" translate(-9.5, -8.2857)" d="M 8 14.5714 V 3.5 C 8 2.67157 8.67157 2 9.5 2 V 2 C 10.3284 2 11 2.67056 11 3.49899 C 11 4.68968 11 6.34156 11 7.5 C 11 8.61578 11 10 11 10" stroke-linecap="round"/>
</g>
</g>
</g>
</svg>