<svg xmlns="http://www.w3.org/2000/svg" xmlns:xlink="http://www.w3.org/1999/xlink" version="1.1" width="1000" height="1000" viewBox="0 0 1000 1000" xml:space="preserve">
<desc>Created with Fabric.js 3.5.0</desc>
<defs>
</defs>
<rect x="0" y="0" width="100%" height="100%" fill="rgba(255,255,255,0)"/>
<g transform="matrix(36.3636 0 0 36.3636 499.9995 499.9996)" id="613068">
<path style="stroke: none; stroke-width: 1; stroke-dasharray: none; stroke-linecap: butt; stroke-dashoffset: 0; stroke-linejoin: miter; stroke-miterlimit: 4; is-custom-font: none; font-file-url: none; fill: rgb(255,255,255); fill-rule: nonzero; opacity: 1;" vector-effect="non-scaling-stroke" transform=" translate(-12.5, -12)" d="M 23.75 1 H 1.25 A 1.25 1.25 0 0 0 0 2.25 v 15.5 A 1.25 1.25 0 0 0 1.25 19 H 7 v 3 H 5 v 1 H 20 V 22 H 18 V 19 h 5.75 A 1.25 1.25 0 0 0 25 17.75 V 2.25 A 1.25 1.25 0 0 0 23.75 1 Z M 17 22 H 8 V 19 h 9 Z m 7 -4.25 a 0.25 0.25 0 0 1 -0.25 0.25 H 1.25 A 0.25 0.25 0 0 1 1 17.75 V 15 H 24 Z M 24 14 H 1 V 2.25 A 0.25 0.25 0 0 1 1.25 2 h 22.5 a 0.25 0.25 0 0 1 0.25 0.25 Z" stroke-linecap="round"/>
</g>
<g transform="matrix(7.1519 0 0 7.1519 499.999 337.427)" id="958227">
<g style="" vector-effect="non-scaling-stroke">
		<g transform="matrix(1 0 0 1 0 0)">
<path style="stroke: none; stroke-width: 1; stroke-dasharray: none; stroke-linecap: butt; stroke-dashoffset: 0; stroke-linejoin: miter; stroke-miterlimit: 4; is-custom-font: none; font-file-url: none; fill: none; fill-rule: nonzero; opacity: 1;" transform=" translate(-24, -24)" d="M 0 0 h 48 v 48 H 0 z" stroke-linecap="round"/>
</g>
		<g transform="matrix(1 0 0 1 0 0)">
<path style="stroke: none; stroke-width: 1; stroke-dasharray: none; stroke-linecap: butt; stroke-dashoffset: 0; stroke-linejoin: miter; stroke-miterlimit: 4; is-custom-font: none; font-file-url: none; fill: rgb(255,255,255); fill-rule: nonzero; opacity: 1;" transform=" translate(-24, -24)" d="M 40 4 H 16 c -2.21 0 -4 1.79 -4 4 v 24 c 0 2.21 1.79 4 4 4 h 24 c 2.21 0 4 -1.79 4 -4 V 8 c 0 -2.21 -1.79 -4 -4 -4 z m -4 10 h -6 v 11 c 0 2.76 -2.24 5 -5 5 s -5 -2.24 -5 -5 s 2.24 -5 5 -5 c 1.13 0 2.16 0.39 3 1.02 V 10 h 8 v 4 z M 8 12 H 4 v 28 c 0 2.21 1.79 4 4 4 h 28 v -4 H 8 V 12 z" stroke-linecap="round"/>
</g>
</g>
</g>
</svg>